<svg xmlns="http://www.w3.org/2000/svg" viewBox="0 0 304.68 75.73"><defs><style>.cls-1{fill:#cde7e7;}.cls-2,.cls-3{fill:#24465c;}.cls-3{font-size:16.06px;font-family:OpenSans-Light, Open Sans;}</style></defs><title>Asset 1</title><g id="Layer_2" data-name="Layer 2"><g id="Layer_1-2" data-name="Layer 1"><g id="Circle"><path class="cls-1" d="M26.67,3.11a7.6,7.6,0,0,0-5.4,2.25L5.38,21.22a7.6,7.6,0,0,0-2.25,5.4V49.07a7.6,7.6,0,0,0,2.25,5.4L21.24,70.33a7.6,7.6,0,0,0,5.4,2.25H49.09a7.6,7.6,0,0,0,5.4-2.25L70.35,54.47a7.6,7.6,0,0,0,2.25-5.4V26.62a7.6,7.6,0,0,0-2.25-5.4L54.5,5.36a7.6,7.6,0,0,0-5.4-2.25ZM49.09,73.48H26.65a8.48,8.48,0,0,1-6-2.5L4.75,55.13a8.48,8.48,0,0,1-2.5-6V26.65a8.48,8.48,0,0,1,2.5-6L20.61,4.75a8.48,8.48,0,0,1,6-2.5H49.09a8.48,8.48,0,0,1,6,2.5L71,20.61a8.48,8.48,0,0,1,2.5,6V49.09a8.48,8.48,0,0,1-2.5,6L55.13,71A8.4,8.4,0,0,1,49.09,73.48Z"/><path class="cls-2" d="M37.88.86A7.87,7.87,0,0,0,35,1.45L14.22,10a7.7,7.7,0,0,0-4.14,4.17L1.5,34.93a7.6,7.6,0,0,0,0,5.86l8.58,20.73a7.57,7.57,0,0,0,4.14,4.14L35,74.24a7.6,7.6,0,0,0,5.86,0l20.73-8.58a7.57,7.57,0,0,0,4.14-4.14l8.58-20.73a7.6,7.6,0,0,0,0-5.86L65.68,14.2a7.57,7.57,0,0,0-4.14-4.14L40.81,1.47A7.42,7.42,0,0,0,37.88.86Zm0,74.87a8.75,8.75,0,0,1-3.28-.66L13.87,66.49a8.46,8.46,0,0,1-4.62-4.62L.66,41.14a8.4,8.4,0,0,1,0-6.54L9.25,13.87a8.46,8.46,0,0,1,4.62-4.62L34.6.66a8.4,8.4,0,0,1,6.54,0L61.87,9.25a8.46,8.46,0,0,1,4.62,4.62L75.07,34.6a8.4,8.4,0,0,1,0,6.54L66.49,61.87a8.46,8.46,0,0,1-4.62,4.62L41.14,75.07A8.53,8.53,0,0,1,37.88,75.73Z"/></g><g id="Laptop"><path class="cls-2" d="M22.84,22a3.9,3.9,0,0,0-3.7,4.07V42.65a3.9,3.9,0,0,0,3.7,4.07H53a3.9,3.9,0,0,0,3.7-4.07V26.09A3.9,3.9,0,0,0,53,22ZM53,48.51H22.84a5.69,5.69,0,0,1-5.49-5.86V26.09a5.69,5.69,0,0,1,5.49-5.86H53a5.69,5.69,0,0,1,5.49,5.86V42.65A5.69,5.69,0,0,1,53,48.51Z"/><path class="cls-2" d="M53.41,43H22.21l.84.84V25l-.84.84H53.41L52.57,25V43.83a.84.84,0,0,0,1.68,0V25a.85.85,0,0,0-.84-.84H22.21a.85.85,0,0,0-.84.84V43.83a.85.85,0,0,0,.84.84H53.41A.84.84,0,0,0,53.41,43Z"/><path class="cls-2" d="M59.89,52.72H16.79c-.78,0-.36-.16-.1.22L14.94,50.4l-.54.95h47l-.54-.95L59.35,53a.63.63,0,0,0,1.09.64L61.92,51a.64.64,0,0,0-.54-.95h-47a.63.63,0,0,0-.54.95c.49.72,1.41,3,2.43,3h43.6A.63.63,0,0,0,59.89,52.72Z"/></g><g id="Line"><rect class="cls-1" x="85.13" y="63.85" width="218.55" height="1.43"/></g><path class="cls-2" d="M100.67,37.11H95.43L92,30.53l-1.38.82v5.75H86V19.92h4.67v7.47a20.36,20.36,0,0,1,1.42-2.2l3.61-5.27h5.08l-5.42,7.7Z"/><path class="cls-2" d="M113.08,37.11l-.85-3.22h-5.59l-.87,3.22h-5.1l5.61-17.26h6.2l5.68,17.26Zm-1.81-7-.74-2.82q-.26-.94-.63-2.43t-.49-2.14q-.11.6-.42,2t-1.38,5.42Z"/><path class="cls-2" d="M131.26,31.89a5.07,5.07,0,0,1-.81,2.84,5.32,5.32,0,0,1-2.34,1.93,8.68,8.68,0,0,1-3.59.69,14.52,14.52,0,0,1-2.88-.24,10.69,10.69,0,0,1-2.42-.84V32.12A13.83,13.83,0,0,0,122,33.19a10.29,10.29,0,0,0,2.63.38,2.56,2.56,0,0,0,1.52-.36,1.1,1.1,0,0,0,.48-.92,1,1,0,0,0-.19-.62,2.25,2.25,0,0,0-.62-.54q-.43-.27-2.29-1.11A11,11,0,0,1,121,28.55a4.55,4.55,0,0,1-1.25-1.65,5.46,5.46,0,0,1-.41-2.2,4.41,4.41,0,0,1,1.73-3.7,7.62,7.62,0,0,1,4.75-1.33,13.33,13.33,0,0,1,5.45,1.23l-1.42,3.59a10.31,10.31,0,0,0-4.16-1.11,2.17,2.17,0,0,0-1.32.32,1,1,0,0,0-.41.79,1.14,1.14,0,0,0,.52.91,19.91,19.91,0,0,0,2.84,1.46A7.86,7.86,0,0,1,130.4,29,4.66,4.66,0,0,1,131.26,31.89Z"/><path class="cls-2" d="M144.13,37.11H133.92V19.92h10.21v3.73h-5.56v2.7h5.15v3.73h-5.15v3.25h5.56Z"/><path class="cls-2" d="M153.28,26.29l3-6.37h5l-5.66,10.48v6.72h-4.68V30.53l-5.66-10.62h5.06Z"/><path class="cls-2" d="M177,23.48a3,3,0,0,0-2.59,1.36,6.56,6.56,0,0,0-.93,3.75q0,5,3.77,5a7.74,7.74,0,0,0,2.21-.32,22.07,22.07,0,0,0,2.15-.76v3.93a11.91,11.91,0,0,1-4.87,1,7.7,7.7,0,0,1-6-2.26q-2.08-2.26-2.08-6.53a10.42,10.42,0,0,1,1-4.69,7.19,7.19,0,0,1,2.89-3.11,8.73,8.73,0,0,1,4.44-1.09,12.23,12.23,0,0,1,5.33,1.21L181,24.54a16,16,0,0,0-1.91-.75A6.66,6.66,0,0,0,177,23.48Z"/><path class="cls-2" d="M199.64,19.92V30.26a6.94,6.94,0,0,1-1.91,5.23,9.07,9.07,0,0,1-10.91.05,6.81,6.81,0,0,1-1.89-5.17V19.92h4.67V30a4.13,4.13,0,0,0,.68,2.65,2.94,2.94,0,0,0,4.07,0A4.37,4.37,0,0,0,195,30V19.92Z"/><path class="cls-2" d="M203.25,37.11V19.92h4.65V33.36h6.62v3.75Z"/><path class="cls-2" d="M224.76,37.11l-3.52-12.38h-.11q.25,3.16.25,4.92v7.47h-4.12V19.92h6.19L227,32.12h.09l3.52-12.21h6.2V37.11h-4.27V29.57q0-.59,0-1.31t.16-3.52h-.11l-3.47,12.36Z"/><path class="cls-2" d="M240.55,19.92h6a10.2,10.2,0,0,1,5.2,1,3.53,3.53,0,0,1,1.7,3.24,4.1,4.1,0,0,1-.74,2.47,3.31,3.31,0,0,1-2,1.32v.12a4,4,0,0,1,2.32,1.41,4.26,4.26,0,0,1,.72,2.56A4.39,4.39,0,0,1,252,35.76a7.7,7.7,0,0,1-4.79,1.35h-6.69Zm4.65,6.6h1.4a2.52,2.52,0,0,0,1.55-.41,1.43,1.43,0,0,0,.55-1.22q0-1.45-2.19-1.45h-1.3Zm0,3.4v3.61h1.63q2.18,0,2.18-1.83a1.58,1.58,0,0,0-.58-1.32,2.68,2.68,0,0,0-1.69-.46Z"/><path class="cls-2" d="M267.33,37.11l-.85-3.22H260.9L260,37.11h-5.1l5.61-17.26h6.2l5.68,17.26Zm-1.81-7-.74-2.82q-.26-.94-.63-2.43t-.49-2.14q-.11.6-.42,2t-1.38,5.42Z"/><path class="cls-2" d="M281.92,23.48a3,3,0,0,0-2.59,1.36,6.56,6.56,0,0,0-.93,3.75q0,5,3.77,5a7.74,7.74,0,0,0,2.21-.32,22.07,22.07,0,0,0,2.15-.76v3.93a11.91,11.91,0,0,1-4.87,1,7.7,7.7,0,0,1-6-2.26q-2.08-2.26-2.08-6.53a10.42,10.42,0,0,1,1-4.69,7.19,7.19,0,0,1,2.89-3.11A8.73,8.73,0,0,1,282,19.67a12.23,12.23,0,0,1,5.33,1.21l-1.42,3.66a16,16,0,0,0-1.91-.75A6.66,6.66,0,0,0,281.92,23.48Z"/><path class="cls-2" d="M304.59,37.11h-5.25l-3.4-6.57-1.38.82v5.75H289.9V19.92h4.67v7.47a20.13,20.13,0,0,1,1.42-2.2l3.61-5.27h5.08l-5.42,7.7Z"/><text class="cls-3" transform="translate(85.76 57.47)">WEB DEVELOPMENT</text></g></g></svg>