<svg id="Layer_1" data-name="Layer 1" xmlns="http://www.w3.org/2000/svg" viewBox="0 0 307 77"><defs><style>.cls-1,.cls-2,.cls-3{fill:#fff;}.cls-2{font-size:24.15px;font-family:OpenSans-Extrabold, Open Sans;font-weight:700;}.cls-3{font-size:16.09px;font-family:OpenSans-Light, Open Sans;}</style></defs><title>Artboard 1</title><g id="Circle"><path class="cls-1" d="M27.67,3.76A7.6,7.6,0,0,0,22.26,6L6.38,21.86a7.6,7.6,0,0,0-2.25,5.4V49.71a7.6,7.6,0,0,0,2.25,5.4L22.24,71a7.6,7.6,0,0,0,5.4,2.25H50.09A7.6,7.6,0,0,0,55.49,71L71.35,55.11a7.6,7.6,0,0,0,2.25-5.4V27.26a7.6,7.6,0,0,0-2.25-5.4L55.49,6a7.6,7.6,0,0,0-5.4-2.25ZM50.09,74.13H27.64a8.48,8.48,0,0,1-6-2.5L5.75,55.77a8.48,8.48,0,0,1-2.5-6V27.29a8.48,8.48,0,0,1,2.5-6L21.61,5.4a8.48,8.48,0,0,1,6-2.5H50.09a8.48,8.48,0,0,1,6,2.5L72,21.25a8.48,8.48,0,0,1,2.5,6V49.74a8.48,8.48,0,0,1-2.5,6L56.12,71.63A8.4,8.4,0,0,1,50.09,74.13Z"/><path class="cls-1" d="M38.88,1.51a7.87,7.87,0,0,0-2.93.58L15.22,10.67a7.7,7.7,0,0,0-4.14,4.17L2.49,35.57a7.6,7.6,0,0,0,0,5.86l8.58,20.73a7.57,7.57,0,0,0,4.14,4.14l20.73,8.58a7.6,7.6,0,0,0,5.86,0L62.54,66.3a7.57,7.57,0,0,0,4.14-4.14l8.58-20.73a7.6,7.6,0,0,0,0-5.86L66.68,14.84a7.57,7.57,0,0,0-4.14-4.14L41.81,2.11A7.42,7.42,0,0,0,38.88,1.51Zm0,74.87a8.75,8.75,0,0,1-3.28-.66L14.87,67.13a8.46,8.46,0,0,1-4.62-4.62L1.66,41.78a8.4,8.4,0,0,1,0-6.54l8.58-20.73a8.46,8.46,0,0,1,4.62-4.62L35.6,1.31a8.4,8.4,0,0,1,6.54,0L62.87,9.89a8.46,8.46,0,0,1,4.62,4.62l8.58,20.73a8.4,8.4,0,0,1,0,6.54L67.49,62.51a8.46,8.46,0,0,1-4.62,4.62L42.14,75.72A8.53,8.53,0,0,1,38.88,76.37Z"/></g><g id="Laptop"><path class="cls-1" d="M23.84,22.67a3.9,3.9,0,0,0-3.7,4.07V43.29a3.9,3.9,0,0,0,3.7,4.07H54a3.9,3.9,0,0,0,3.7-4.07V26.74A3.9,3.9,0,0,0,54,22.67ZM54,49.16H23.84a5.69,5.69,0,0,1-5.49-5.86V26.74a5.69,5.69,0,0,1,5.49-5.86H54a5.69,5.69,0,0,1,5.49,5.86V43.29A5.69,5.69,0,0,1,54,49.16Z"/><path class="cls-1" d="M54.41,43.64H23.21l.84.84V25.66l-.84.84H54.41l-.84-.84V44.48a.84.84,0,0,0,1.68,0V25.66a.85.85,0,0,0-.84-.84H23.21a.85.85,0,0,0-.84.84V44.48a.85.85,0,0,0,.84.84H54.41A.84.84,0,0,0,54.41,43.64Z"/><path class="cls-1" d="M60.89,53.37H17.78c-.78,0-.36-.16-.1.22L15.94,51,15.4,52h47L61.83,51l-1.49,2.64a.63.63,0,0,0,1.09.64l1.49-2.64a.64.64,0,0,0-.54-.95h-47a.63.63,0,0,0-.54.95c.49.72,1.41,3,2.43,3h43.6A.63.63,0,0,0,60.89,53.37Z"/></g><g id="Words"><text class="cls-2" transform="translate(84.75 38.88)">K</text><text class="cls-2" transform="translate(101.34 38.88)">A</text><text class="cls-2" transform="translate(118.87 38.88)">S</text><text class="cls-2" transform="translate(132.8 38.88)">E</text><text class="cls-2" transform="translate(146.05 38.88)">Y</text><text class="cls-2" transform="translate(168.35 38.88)">C</text><text class="cls-2" transform="translate(184.01 38.88)">U</text><text class="cls-2" transform="translate(202.29 38.88)">L</text><text class="cls-2" transform="translate(216.34 38.88)">M</text><text class="cls-2" transform="translate(239.68 38.88)">B</text><text class="cls-2" transform="translate(255.94 38.88)">A</text><text class="cls-2" transform="translate(273.47 38.88)">C</text><text class="cls-2" transform="translate(289.14 38.88)">K</text><text class="cls-3" transform="translate(84.75 55.63)">W</text><text class="cls-3" transform="translate(99.11 55.63)">E</text><text class="cls-3" transform="translate(107.98 55.63)">B</text><text class="cls-3" transform="translate(122.25 55.63)">D</text><text class="cls-3" transform="translate(133.61 55.63)">E</text><text class="cls-3" transform="translate(142.49 55.63)">V</text><text class="cls-3" transform="translate(151.78 55.63)">E</text><text class="cls-3" transform="translate(160.65 55.63)">L</text><text class="cls-3" transform="translate(168.91 55.63)">O</text><text class="cls-3" transform="translate(181.21 55.63)">P</text><text class="cls-3" transform="translate(190.62 55.63)">M</text><text class="cls-3" transform="translate(204.5 55.63)">E</text><text class="cls-3" transform="translate(213.38 55.63)">N</text><text class="cls-3" transform="translate(224.98 55.63)">T</text></g><g id="Line"><rect class="cls-1" x="86.12" y="60.5" width="219.78" height="1.43"/></g></svg>