<?xml version="1.0" encoding="utf-8"?>
<svg viewBox="200.293 197.247 168.948 110.08" xmlns="http://www.w3.org/2000/svg">
  <path d="M 258.593 257.959 L 291.773 197.325 L 259.113 197.325 L 237.943 239.321 L 229.373 234.069 L 229.373 197.325 L 200.293 197.325 L 200.293 307.166 L 229.373 307.166 L 229.373 259.457 C 230.84 262.411 233.793 267.096 238.233 273.51 L 260.723 307.166 L 292.363 307.166 L 258.593 257.959 Z" style="fill: rgb(74, 85, 104); white-space: pre;" transform="matrix(-1, 0, 0, -1, 492.656006, 504.490967)"/>
  <path d="M 335.771 220.977 C 328.891 220.977 323.521 223.797 319.661 229.437 C 315.801 235.077 313.871 242.854 313.871 252.767 C 313.871 273.374 321.708 283.677 337.381 283.677 C 342.121 283.677 346.711 283.017 351.151 281.697 C 355.598 280.377 360.068 278.79 364.561 276.937 L 364.561 301.397 C 355.621 305.35 345.511 307.327 334.231 307.327 C 318.071 307.327 305.681 302.64 297.061 293.267 C 288.448 283.894 284.141 270.344 284.141 252.617 C 284.141 241.537 286.228 231.797 290.401 223.397 C 294.574 214.997 300.581 208.54 308.421 204.027 C 316.254 199.507 325.471 197.247 336.071 197.247 C 347.638 197.247 358.694 199.764 369.241 204.797 L 360.381 227.567 C 356.428 225.714 352.474 224.154 348.521 222.887 C 344.561 221.614 340.311 220.977 335.771 220.977 Z" style="fill: rgb(74, 85, 104); white-space: pre;"/>
</svg>