<?xml version="1.0" standalone="no"?>
<!DOCTYPE svg PUBLIC "-//W3C//DTD SVG 20010904//EN"
 "http://www.w3.org/TR/2001/REC-SVG-20010904/DTD/svg10.dtd">
<svg version="1.0" xmlns="http://www.w3.org/2000/svg"
 width="1352.000000pt" height="1352.000000pt" viewBox="0 0 1352.000000 1352.000000"
 preserveAspectRatio="xMidYMid meet">
<metadata>
Created by potrace 1.11, written by Peter Selinger 2001-2013
</metadata>
<g transform="translate(0.000000,1352.000000) scale(0.100000,-0.100000)"
fill="#000000" stroke="none">
<path d="M10 11152 c-9 -3 57 -104 72 -110 5 -2 8 -9 8 -15 0 -6 7 -19 17 -29
9 -10 21 -27 27 -37 10 -17 96 -145 160 -235 11 -17 26 -34 31 -38 7 -5 7 -8
0 -8 -7 0 -7 -3 0 -8 16 -11 65 -80 65 -90 0 -6 3 -12 8 -14 4 -1 41 -52 82
-113 40 -60 76 -112 79 -115 3 -3 42 -59 86 -125 44 -66 83 -124 87 -130 46
-61 118 -168 118 -175 0 -4 3 -10 8 -12 4 -1 36 -46 71 -98 36 -52 67 -97 70
-100 3 -3 12 -14 19 -25 37 -58 52 -81 61 -92 6 -7 11 -15 11 -18 0 -4 6 -13
13 -20 30 -35 37 -45 30 -45 -4 0 -3 -4 3 -8 11 -8 181 -251 203 -291 8 -15
17 -28 21 -31 3 -3 35 -48 71 -100 35 -52 67 -96 71 -98 5 -2 8 -8 8 -13 0 -7
47 -78 97 -145 4 -5 13 -17 18 -27 6 -9 46 -68 90 -132 44 -64 85 -123 90
-133 6 -9 12 -19 15 -22 3 -3 19 -25 36 -50 17 -25 55 -81 86 -125 30 -44 88
-129 130 -190 41 -60 95 -138 119 -173 24 -35 49 -70 54 -79 6 -10 14 -22 18
-27 30 -40 219 -314 224 -326 4 -8 11 -19 15 -25 28 -35 78 -108 108 -155 19
-30 39 -60 45 -67 27 -32 32 -39 38 -57 4 -10 2 -25 -4 -32 -6 -8 -8 -14 -3
-14 5 0 4 -4 -2 -8 -6 -4 -26 -36 -45 -72 -18 -36 -36 -67 -39 -70 -3 -3 -14
-22 -23 -42 -9 -20 -34 -65 -54 -100 -32 -57 -68 -122 -125 -231 -11 -20 -24
-40 -29 -43 -5 -3 -9 -14 -9 -25 0 -10 -4 -19 -8 -19 -4 0 -15 -15 -23 -32
-23 -51 -93 -182 -100 -188 -3 -3 -28 -48 -55 -100 -27 -52 -51 -97 -54 -100
-3 -3 -15 -23 -27 -45 -11 -22 -32 -60 -45 -85 -14 -25 -39 -72 -58 -105 -18
-33 -64 -118 -104 -190 -39 -71 -78 -142 -86 -157 -8 -15 -26 -49 -40 -75 -14
-26 -27 -50 -30 -53 -3 -3 -14 -23 -25 -45 -11 -22 -46 -86 -77 -143 -32 -57
-58 -108 -58 -112 0 -5 -3 -10 -8 -12 -4 -1 -15 -19 -24 -38 -9 -19 -35 -66
-56 -105 -106 -193 -335 -611 -377 -690 -27 -49 -53 -93 -58 -96 -5 -3 -9 -10
-9 -15 -1 -15 -21 -54 -28 -54 -4 0 -7 -6 -7 -12 0 -7 -17 -41 -37 -75 -20
-34 -36 -64 -36 -67 0 -3 -13 -27 -28 -53 -16 -26 -46 -79 -66 -118 -75 -136
-99 -180 -120 -220 -11 -22 -23 -42 -26 -45 -3 -3 -14 -23 -25 -45 -11 -22
-44 -83 -73 -135 -30 -52 -54 -99 -55 -105 -1 -5 -5 -12 -8 -15 -6 -5 -59
-101 -111 -199 -18 -34 -37 -70 -43 -79 -5 -10 -50 -91 -99 -182 -49 -91 -96
-173 -104 -182 -8 -10 -12 -18 -8 -18 4 0 -5 -17 -19 -37 -14 -21 -25 -43 -25
-50 0 -6 -6 -18 -13 -25 -6 -7 -21 -31 -32 -53 -11 -22 -21 -43 -23 -46 -1 -3
91 -5 205 -4 115 0 218 -3 230 -7 12 -4 24 -4 27 0 5 9 529 8 543 -1 7 -4 14
-4 17 1 5 9 208 8 224 -2 6 -3 13 -3 15 1 5 7 1076 10 1102 3 6 -1 15 -1 20 0
6 1 59 3 118 4 l109 1 304 604 c167 332 308 609 313 615 5 6 12 22 16 36 4 14
16 37 27 53 11 15 18 27 16 27 -2 0 24 55 58 123 136 267 213 422 214 432 1 6
7 17 14 25 7 8 30 51 51 95 21 44 45 88 54 99 9 10 14 20 12 23 -5 6 81 176
94 185 5 4 6 8 1 8 -5 0 -1 9 9 20 10 11 16 20 12 20 -4 0 34 78 91 185 9 17
17 32 18 35 1 3 5 15 9 28 4 12 11 22 16 22 5 0 9 9 9 20 0 11 5 20 10 20 6 0
10 9 10 19 0 11 3 21 8 23 9 4 236 456 231 460 -2 2 5 17 17 33 11 17 33 56
48 87 25 53 29 56 52 48 13 -5 37 -18 52 -29 54 -37 162 -101 171 -101 5 0 11
-7 15 -15 3 -8 14 -15 25 -15 11 0 21 -3 23 -7 3 -8 64 -53 71 -53 3 0 51 -29
108 -65 57 -36 123 -75 146 -87 24 -12 46 -31 49 -42 8 -24 7 -224 -1 -237 -4
-5 -3 -9 2 -9 7 0 8 -34 3 -155 -1 -25 -1 -226 -1 -275 0 -8 1 -60 0 -115 0
-55 0 -107 1 -115 2 -150 -1 -283 -5 -290 -4 -6 -3 -10 2 -10 7 0 8 -34 3
-155 -1 -25 -1 -226 -1 -275 1 -12 0 -174 0 -225 0 -5 0 -82 0 -170 0 -203 0
-172 0 -340 0 -80 0 -152 0 -160 0 -8 0 -81 0 -162 0 -249 -2 -238 42 -239 20
0 43 -3 52 -7 9 -3 18 -3 21 1 5 9 1088 8 1103 -1 6 -4 14 -4 17 1 5 9 208 8
224 -2 6 -3 13 -3 16 2 5 9 208 8 224 -2 6 -3 13 -3 15 1 5 7 356 10 382 3 6
-1 15 -1 20 0 6 1 55 3 110 4 l100 1 0 798 c0 438 2 797 3 797 8 0 41 -46 42
-57 0 -7 5 -13 10 -13 6 0 10 -7 10 -15 0 -8 5 -15 10 -15 6 0 10 -4 10 -10 0
-5 6 -18 14 -27 8 -10 41 -54 74 -98 32 -44 69 -92 83 -107 13 -15 40 -46 59
-69 43 -51 160 -178 178 -193 7 -6 30 -27 50 -46 90 -86 324 -274 373 -300 13
-7 26 -16 29 -20 11 -14 219 -139 295 -176 44 -21 82 -42 85 -45 13 -15 358
-159 382 -159 8 0 18 -4 24 -8 7 -7 105 -41 137 -48 4 -1 8 -2 10 -4 1 -1 9
-3 17 -5 8 -1 42 -11 75 -21 66 -20 66 -20 112 -28 18 -3 43 -10 56 -15 21 -8
67 -18 117 -25 8 -2 31 -6 50 -11 19 -4 49 -9 65 -11 17 -1 32 -3 35 -5 3 -1
10 -3 15 -4 6 -1 24 -4 40 -8 27 -6 52 -9 170 -23 17 -2 46 -6 65 -8 35 -5
172 -18 220 -20 14 -1 30 -5 37 -9 6 -4 14 -3 17 1 3 5 27 6 53 1 52 -8 674
-4 788 5 39 3 104 8 145 11 80 6 159 14 200 20 14 2 50 6 80 10 96 12 324 47
385 60 6 2 37 9 70 16 33 7 67 14 75 15 8 0 17 2 20 3 6 3 23 7 60 14 31 6
190 47 210 55 8 3 20 6 25 7 6 2 30 8 55 16 25 7 51 14 58 15 8 1 21 6 30 10
9 4 22 8 28 9 36 8 275 95 364 132 58 24 110 45 115 47 6 1 19 7 30 13 20 11
20 22 20 987 l0 975 -25 -6 c-14 -3 -29 -9 -35 -13 -5 -5 -48 -22 -95 -40 -47
-17 -98 -38 -115 -45 -16 -7 -55 -21 -85 -31 -30 -10 -57 -22 -60 -25 -3 -3
-18 -10 -35 -14 -33 -9 -34 -9 -55 -17 -48 -18 -146 -53 -152 -54 -5 -1 -10
-3 -13 -4 -3 -1 -8 -3 -12 -4 -5 -1 -60 -19 -123 -40 -63 -21 -119 -39 -125
-40 -5 -1 -14 -4 -20 -8 -5 -3 -26 -9 -45 -14 -43 -10 -42 -9 -60 -17 -8 -3
-44 -13 -80 -22 -36 -10 -72 -20 -80 -23 -8 -3 -23 -6 -32 -7 -10 -2 -19 -3
-20 -5 -5 -3 -66 -17 -113 -26 -16 -3 -48 -9 -70 -14 -22 -5 -62 -12 -90 -16
-27 -3 -59 -8 -70 -10 -11 -2 -44 -7 -74 -10 -30 -3 -62 -7 -72 -9 -48 -9
-244 -19 -394 -19 -185 0 -307 7 -400 25 -33 6 -71 13 -85 15 -102 13 -281 73
-415 140 -114 57 -123 62 -191 106 -73 47 -274 226 -274 244 0 2 -9 15 -21 27
-11 12 -30 35 -42 50 -12 16 -33 42 -45 58 -13 16 -20 29 -15 29 4 0 3 4 -3 8
-25 17 -133 214 -174 317 -13 33 -28 66 -33 73 -5 6 -6 12 -3 12 4 0 2 9 -4
20 -12 23 -77 231 -84 270 -2 14 -5 25 -7 25 -1 0 -3 9 -5 20 -3 23 -11 59
-18 83 -3 9 -7 33 -10 52 -3 19 -8 46 -11 60 -3 14 -7 39 -10 55 -2 17 -6 46
-10 65 -3 19 -8 58 -10 85 -3 28 -8 70 -10 95 -15 140 -18 225 -19 520 -1 281
4 412 19 545 2 17 6 57 10 90 3 33 8 74 11 90 8 49 16 99 21 120 2 11 6 34 8
50 11 69 77 335 95 380 4 11 15 43 25 70 28 84 111 280 129 305 6 8 20 33 31
55 19 38 91 159 107 180 5 6 31 42 60 80 69 95 235 257 333 327 83 58 247 148
271 148 8 0 14 5 14 10 0 6 3 9 8 8 4 -1 32 6 62 17 30 10 60 20 65 21 6 1 37
9 70 18 33 8 78 18 100 21 22 3 58 9 80 13 50 9 455 8 550 -1 39 -4 104 -11
145 -17 41 -6 91 -13 110 -16 19 -3 46 -7 60 -10 14 -3 39 -8 55 -10 17 -3 64
-15 105 -25 41 -11 83 -22 94 -24 10 -2 44 -12 75 -21 31 -9 62 -17 69 -17 6
0 12 -4 12 -9 0 -5 4 -7 8 -4 5 3 21 -1 36 -9 15 -8 37 -16 49 -18 12 -2 36
-10 52 -16 17 -7 35 -14 42 -15 7 -1 16 -5 19 -9 4 -4 14 -7 22 -7 8 0 28 -6
45 -14 18 -8 104 -42 192 -76 164 -64 271 -110 315 -134 14 -8 30 -15 35 -16
6 -1 29 -10 52 -21 23 -10 45 -19 48 -19 6 0 45 81 50 104 1 6 8 25 15 41 6
17 22 57 35 90 13 33 29 74 36 90 7 17 13 33 14 38 2 4 4 9 5 12 1 3 3 8 5 13
1 4 7 21 14 37 6 17 25 66 42 110 17 44 37 94 44 110 8 17 17 42 20 58 4 15
11 30 16 33 5 3 7 10 4 15 -4 5 -1 9 4 9 6 0 10 3 9 8 -2 6 7 36 32 97 11 26
22 58 26 70 2 8 46 118 79 200 5 11 9 22 10 25 1 3 7 19 14 35 7 17 14 35 15
40 1 6 10 27 19 49 9 21 17 44 17 50 0 7 4 16 8 22 5 5 21 43 36 84 15 41 32
84 37 95 10 23 32 78 34 85 1 7 41 109 56 145 6 17 13 35 14 41 2 8 -131 79
-185 99 -3 1 -16 6 -30 12 -14 6 -42 18 -62 26 -21 9 -38 13 -38 9 0 -4 -4 -2
-8 4 -5 8 -85 43 -112 50 -3 0 -18 6 -35 13 -88 36 -406 143 -515 172 -92 25
-90 24 -170 44 -36 9 -81 20 -100 25 -28 7 -122 29 -150 35 -3 1 -30 5 -60 10
-30 5 -57 9 -60 10 -28 8 -91 19 -165 29 -16 3 -43 7 -60 10 -84 13 -122 19
-150 22 -16 1 -57 5 -90 9 -120 12 -152 15 -270 22 -165 10 -614 10 -760 -1
-66 -4 -138 -9 -161 -11 -23 -1 -45 -4 -50 -7 -5 -2 -21 -4 -36 -3 -16 0 -28
-2 -28 -5 0 -3 -17 -5 -38 -6 -33 0 -64 -4 -167 -20 -16 -3 -43 -7 -60 -9 -16
-2 -40 -7 -52 -10 -13 -3 -33 -7 -45 -10 -89 -19 -256 -57 -268 -62 -8 -3 -20
-7 -27 -9 -29 -6 -165 -48 -243 -76 -47 -16 -89 -31 -95 -32 -13 -4 -39 -14
-92 -36 -23 -10 -44 -16 -47 -12 -3 3 -6 1 -6 -5 0 -6 -12 -14 -26 -17 -33 -9
-247 -113 -349 -171 -44 -24 -87 -48 -95 -52 -15 -7 -76 -46 -95 -60 -5 -5
-22 -14 -37 -22 -16 -8 -28 -18 -28 -23 0 -4 -5 -8 -12 -8 -22 0 -302 -217
-412 -319 -74 -69 -223 -220 -247 -250 -11 -14 -37 -44 -57 -66 -35 -37 -90
-106 -137 -170 -11 -15 -39 -53 -62 -83 -23 -31 -48 -68 -55 -82 -7 -14 -15
-27 -18 -30 -7 -7 -56 -81 -69 -105 -12 -23 -12 -18 -12 1068 -1 530 -4 707
-12 708 -7 1 -528 2 -1160 3 -1139 1 -1147 1 -1154 -19 -4 -11 -6 -24 -4 -30
6 -18 2 -276 -4 -285 -4 -6 -3 -10 2 -10 7 0 8 -34 3 -155 -1 -25 -1 -226 -1
-275 0 -8 1 -60 0 -115 0 -55 0 -107 1 -115 2 -150 -1 -283 -5 -290 -4 -6 -3
-10 2 -10 7 0 8 -34 3 -155 -1 -25 -1 -226 -1 -275 0 -8 1 -60 0 -115 0 -55 0
-107 1 -115 2 -150 -1 -283 -5 -290 -4 -6 -3 -10 2 -10 7 0 8 -34 3 -155 -1
-25 -1 -226 -1 -275 0 -8 1 -60 0 -115 0 -55 0 -107 1 -115 2 -150 -1 -283 -5
-290 -4 -6 -3 -10 2 -10 7 0 8 -40 3 -155 0 -16 0 -117 1 -223 0 -106 -1 -195
-3 -198 -3 -2 -20 26 -39 63 -19 37 -38 72 -42 78 -7 9 -82 132 -214 353 -20
34 -41 62 -45 62 -4 0 -8 5 -8 10 0 13 -240 374 -252 378 -4 2 -8 10 -8 18 0
8 -3 14 -8 14 -4 0 -12 9 -17 20 -6 11 -43 67 -82 125 -40 58 -73 109 -73 114
0 5 -3 11 -7 13 -9 3 -93 125 -93 134 0 3 -8 14 -18 25 -11 10 -25 32 -33 47
-8 15 -22 36 -31 46 -10 11 -20 28 -24 38 -3 10 -10 18 -15 18 -5 0 -9 4 -9 9
0 12 -61 105 -72 109 -4 2 -8 8 -8 13 0 5 -15 31 -33 57 -19 26 -278 414 -577
862 -299 448 -547 817 -552 818 -4 2 -8 7 -8 12 0 7 -222 345 -236 359 -5 6
-2506 9 -2524 3z"/>
</g>
</svg>
